<?xml version="1.0" encoding="UTF-8"?>
<!DOCTYPE svg PUBLIC "-//W3C//DTD SVG 1.1//EN" "http://www.w3.org/Graphics/SVG/1.1/DTD/svg11.dtd">
<svg xmlns="http://www.w3.org/2000/svg" xmlns:xlink="http://www.w3.org/1999/xlink" version="1.1" width="736px" height="496px" viewBox="-0.5 -0.5 736 496"><defs/><g><g data-cell-id="0"><g data-cell-id="1"><g data-cell-id="pxvFT93mC9UTwAzAostl-4"><g><rect x="50" y="270" width="630" height="50" fill="#ffc845" stroke="none" transform="rotate(180,365,295)" pointer-events="all"/></g></g><g data-cell-id="2BMf3g0lgDLHXrAbxheR-7"><g><g><svg fill="#FFC845" width="736" height="496" viewBox="4 19 92 62" version="1.1" xml:space="preserve" xmlns="http://www.w3.org/2000/svg" xmlns:xlink="http://www.w3.org/1999/xlink" x="-0.5" y="-0.5" style="font-family: initial;">&#xa;&#xa;<g id="jackhammer"/>&#xa;&#xa;<g id="drilling_machine"/>&#xa;&#xa;<g id="hammer"/>&#xa;&#xa;<g id="measuring_tape"/>&#xa;&#xa;<g id="wrench"/>&#xa;&#xa;<g id="saw"/>&#xa;&#xa;<g id="building"/>&#xa;&#xa;<g id="wall"/>&#xa;&#xa;<g id="crane"/>&#xa;&#xa;<g id="barrier_sign"/>&#xa;&#xa;<g id="concept"/>&#xa;&#xa;<g id="shovel"/>&#xa;&#xa;<g id="architecture"/>&#xa;&#xa;<g id="safety_helmet">&#xa;&#xa;<g>&#xa;&#xa;<path d="M91,71h-1V58c0-8.4-3-16.5-8.5-22.8l1.6-3.8c0.3-0.7,0.3-1.6,0-2.3c-0.3-0.7-0.9-1.3-1.6-1.6l-3.7-1.5    c-1.5-0.6-3.3,0.1-3.9,1.6l-0.4,0.9c-5-3.1-10.6-4.9-16.5-5.2V22c0-1.7-1.3-3-3-3h-8c-1.7,0-3,1.3-3,3v1.1    c-5.9,0.3-11.5,2.1-16.5,5.2l-0.4-0.9c-0.6-1.5-2.4-2.2-3.9-1.6l-3.7,1.5c-0.7,0.3-1.3,0.9-1.6,1.6c-0.3,0.7-0.3,1.6,0,2.3    l1.6,3.8C13,41.5,10,49.6,10,58v13H9c-2.8,0-5,2.2-5,5s2.2,5,5,5h82c2.8,0,5-2.2,5-5S93.8,71,91,71z M77,27.7l3.7,1.5    c0.2,0.1,0.4,0.3,0.5,0.5c0.1,0.2,0.1,0.5,0,0.8l-1.8,4.4c0,0,0,0,0,0l-5.8,13.8L68,46.4l7.7-18.2C75.9,27.7,76.5,27.5,77,27.7z     M50,43c6.1,0,11,4.9,11,11s-4.9,11-11,11s-11-4.9-11-11S43.9,43,50,43z M45,22c0-0.6,0.4-1,1-1h8c0.6,0,1,0.4,1,1v20    c-1.5-0.6-3.2-1-5-1s-3.5,0.4-5,1V22z M18.7,29.8c0.1-0.2,0.3-0.4,0.5-0.5l3.7-1.5c0.1-0.1,0.3-0.1,0.4-0.1c0.4,0,0.8,0.2,0.9,0.6    L32,46.4l-5.6,2.3l-5.8-13.8c0,0,0,0,0,0l-1.8-4.4C18.6,30.3,18.6,30,18.7,29.8z M12,58c0-7.6,2.6-14.9,7.4-20.8l5.6,13.2    c0.2,0.4,0.5,0.6,0.9,0.6c0.1,0,0.3,0,0.4-0.1l7.4-3.1c0.2-0.1,0.4-0.3,0.5-0.5c0.1-0.2,0.1-0.5,0-0.8l-6.9-16.4    c4.7-3,10.1-4.7,15.7-5.1v18c-3.6,2.3-6,6.3-6,10.9c0,7.2,5.8,13,13,13s13-5.8,13-13c0-4.6-2.4-8.6-6-10.9v-18    c5.6,0.3,11,2.1,15.7,5.1l-6.9,16.4c-0.1,0.2-0.1,0.5,0,0.8c0.1,0.2,0.3,0.4,0.5,0.5l7.4,3.1C73.9,51,74,51,74.1,51    c0.4,0,0.8-0.2,0.9-0.6l5.6-13.2C85.4,43.1,88,50.4,88,58v13H12V58z M91,79H9c-1.7,0-3-1.3-3-3s1.3-3,3-3h2h78h2c1.7,0,3,1.3,3,3    S92.7,79,91,79z"/>&#xa;&#xa;<path d="M50,63c5,0,9-4,9-9s-4-9-9-9s-9,4-9,9S45,63,50,63z M50,47c3.9,0,7,3.1,7,7s-3.1,7-7,7s-7-3.1-7-7S46.1,47,50,47z"/>&#xa;&#xa;</g>&#xa;&#xa;</g>&#xa;&#xa;<g id="worker"/>&#xa;&#xa;<g id="teamwork"/>&#xa;&#xa;<g id="roller_brush"/>&#xa;&#xa;<g id="designs"/>&#xa;&#xa;<g id="trolley"/>&#xa;&#xa;<g id="pick_axe"/>&#xa;&#xa;</svg></g></g></g><g data-cell-id="pxvFT93mC9UTwAzAostl-5"><g><ellipse cx="368" cy="280.69" rx="94.69" ry="94.69" fill="#ffc845" stroke="none" pointer-events="all"/></g></g><g data-cell-id="2BMf3g0lgDLHXrAbxheR-6"><g><g><svg fill="#326CE5" height="184" width="184" version="1.1" id="Capa_1" viewBox="0 0 461.3349914550781 461.333984375" xml:space="preserve" xmlns="http://www.w3.org/2000/svg" xmlns:xlink="http://www.w3.org/1999/xlink" x="275.5" y="190.88" style="font-family: initial;">&#xa;<path d="M441.333,210.667H413.32c-3.87-35.745-17.991-68.41-39.364-95.005l19.816-19.816c7.81-7.811,7.81-20.474,0-28.284&#10;&#9;c-7.811-7.811-20.475-7.811-28.285,0l-19.816,19.816c-26.595-21.373-59.26-35.493-95.005-39.363V20c0-11.046-8.954-20-20-20&#10;&#9;s-20,8.954-20,20v28.013c-35.745,3.87-68.411,17.991-95.006,39.364L95.845,67.561c-7.811-7.811-20.474-7.811-28.284,0&#10;&#9;s-7.811,20.474,0,28.284l19.816,19.816c-21.373,26.595-35.494,59.26-39.364,95.006H20c-11.046,0-20,8.954-20,20s8.954,20,20,20&#10;&#9;h28.013c3.87,35.745,17.991,68.411,39.364,95.006l-19.816,19.816c-7.811,7.811-7.811,20.474,0,28.284&#10;&#9;c3.905,3.905,9.023,5.858,14.142,5.858s10.237-1.953,14.142-5.858l19.816-19.816c26.595,21.373,59.26,35.494,95.006,39.364v28.013&#10;&#9;c0,11.046,8.954,20,20,20s20-8.954,20-20V413.32c35.745-3.87,68.411-17.991,95.006-39.363l19.816,19.816&#10;&#9;c3.905,3.905,9.024,5.858,14.143,5.858s10.237-1.953,14.143-5.858c7.81-7.811,7.81-20.474,0-28.284l-19.816-19.816&#10;&#9;c21.373-26.595,35.493-59.26,39.363-95.005h28.013c11.046,0,20-8.954,20-20S452.379,210.667,441.333,210.667z M373.026,210.667&#10;&#9;h-55.882c-2.235-9.705-6.067-18.798-11.196-26.996l39.524-39.524C360.238,163.655,369.672,186.43,373.026,210.667z M317.187,115.861&#10;&#9;l-39.524,39.524c-8.198-5.129-17.292-8.961-26.996-11.196V88.307C274.903,91.661,297.678,101.095,317.187,115.861z M210.667,88.307&#10;&#9;v55.882c-9.705,2.235-18.798,6.067-26.997,11.196l-39.524-39.524C163.655,101.095,186.43,91.661,210.667,88.307z M115.861,144.145&#10;&#9;l39.524,39.524c-5.129,8.199-8.961,17.292-11.196,26.997H88.307C91.661,186.43,101.095,163.654,115.861,144.145z M88.307,250.667&#10;&#9;h55.882c2.235,9.705,6.067,18.798,11.196,26.997l-39.524,39.525C101.095,297.679,91.661,274.903,88.307,250.667z M144.145,345.472&#10;&#9;l39.525-39.524c8.199,5.129,17.292,8.961,26.997,11.196v55.882C186.43,369.672,163.654,360.238,144.145,345.472z M250.667,373.026&#10;&#9;v-55.882c9.705-2.235,18.798-6.067,26.997-11.196l39.524,39.524C297.678,360.238,274.903,369.672,250.667,373.026z M345.472,317.188&#10;&#9;l-39.525-39.524c5.129-8.199,8.961-17.292,11.196-26.997h55.882C369.672,274.903,360.238,297.679,345.472,317.188z"/>&#xa;</svg></g></g></g><g data-cell-id="pxvFT93mC9UTwAzAostl-1"><g><rect x="74.13" y="119.1" width="182" height="68.39" fill="#ffc845" stroke="none" transform="rotate(428,165.13,153.3)" pointer-events="all"/></g></g><g data-cell-id="pxvFT93mC9UTwAzAostl-2"><g><rect x="274" y="50" width="182" height="90" fill="#ffc845" stroke="none" transform="rotate(90,365,95)" pointer-events="all"/></g></g><g data-cell-id="pxvFT93mC9UTwAzAostl-3"><g><rect x="470.01" y="120" width="182" height="68.39" fill="#ffc845" stroke="none" transform="rotate(473,561.01,154.19)" pointer-events="all"/></g></g></g></g></g></svg>